<svg xmlns="http://www.w3.org/2000/svg" width="62.7" height="123.9" viewBox="0 0 62.7 123.9"><path fill="#b4fff4" d="M57.2 91.8L48 76.7A68.3 68.3 0 0 0 51 58v-2.6c-1-16.8-7.5-22.8-12.3-27.7a22.4 22.4 0 0 1-5.3-7.1.1.1 0 0 1-.1-.1 5.2 5.2 0 0 0 2-.7 3 3 0 0 0 1.4-2.6l-.3-.6c-.4-.4-1.5-.6-3.4-.7a11.4 11.4 0 0 1 0-3.2c.1-.6.1-.6.9-.7h.2a1.2 1.2 0 0 0 1-.7 1.9 1.9 0 0 0-.4-1.8s-.1-.2 0-.2l-.2-.2c-1.3-3.3-1.9-5.5-1.9-6.8s-.4-2-.7-2.2h-.8c-.2.1-.7.4-.7 2.2s-.4 2.7-2 6.8v.4a2.5 2.5 0 0 0-.5 1.3.7.7 0 0 0 .1.5 1.3 1.3 0 0 0 1 .7c.8.1.8.1.9.7a13.4 13.4 0 0 1 .1 1.9 5.3 5.3 0 0 1-.1 1.3c-1.8.1-3 .3-3.4.7l-.3.6a3 3 0 0 0 1.4 2.6 5.2 5.2 0 0 0 2 .7c-1.3 2.9-3.3 4.9-5.6 7.2-4.8 4.8-11.3 10.9-12.3 27.6V58a68.3 68.3 0 0 0 3 18.7L5.5 91.8 0 123.9h6.3l5.8-20.4 9.8-8.2h.4l1.1.4c.1 1 .3 2.1.4 2.7s.4 1.8 5 2.1v23.3h5.1v-23.2c4.9-.3 5.1-1.6 5.2-2.1l.5-2.7 1-.4h.3l9.7 8.2 5.8 20.4h6.3z"/></svg>